<?xml version="1.0" encoding="UTF-8"?>
<svg version="1.1" xmlns="http://www.w3.org/2000/svg" width="70" height="70" viewBox="0 0 500 400">
<path d="M0 0 C1.30898499 -0.00679667 1.30898499 -0.00679667 2.64441413 -0.01373065 C5.56220651 -0.02636892 8.4798121 -0.02475464 11.39762878 -0.02310181 C13.49226114 -0.02908741 15.5868913 -0.03589303 17.68151855 -0.04345703 C23.36754843 -0.06112096 29.0535181 -0.06581258 34.73957276 -0.0670886 C38.29323276 -0.06851054 41.84687747 -0.07278094 45.40053368 -0.07808304 C57.80159349 -0.09658461 70.20261031 -0.10475349 82.60368347 -0.10317993 C94.15758491 -0.1019785 105.71129954 -0.123081 117.26515371 -0.15466726 C127.18975827 -0.18083117 137.11430183 -0.19154718 147.03894061 -0.19026911 C152.96424755 -0.18975952 158.88938848 -0.19544165 164.81466103 -0.21662521 C170.38876153 -0.23600935 175.96253767 -0.23613063 181.5366497 -0.22159195 C183.57921447 -0.21950299 185.62179955 -0.22420989 187.66432953 -0.23631287 C190.45946 -0.251799 193.2534767 -0.24243496 196.04858398 -0.22705078 C196.85093863 -0.23733791 197.65329327 -0.24762503 198.47996169 -0.25822389 C207.28072108 -0.15166943 214.07672126 3.48907769 220.42570496 9.40805054 C228.00280333 17.28293881 229.51476125 24.51062237 229.5052948 35.25473022 C229.51201202 36.3514505 229.51872925 37.44817078 229.52565002 38.578125 C229.5446249 42.19856313 229.54855416 45.81881579 229.55070496 49.43930054 C229.55713376 51.96267777 229.56386219 54.48605426 229.57087708 57.00942993 C229.58284897 62.29857409 229.58664384 67.58764947 229.58537292 72.87680054 C229.58417308 78.9696424 229.60524899 85.06212915 229.63686025 91.15488124 C229.66628325 97.03779034 229.67334576 102.92056025 229.67215347 108.80353546 C229.67450733 111.29609882 229.68331861 113.78866505 229.69881821 116.28118134 C229.71850967 119.77526423 229.71262656 123.26844393 229.7006073 126.76254272 C229.71184631 127.78314789 229.72308533 128.80375305 229.73466492 129.85528564 C229.6521383 139.34148758 226.97620368 147.44813783 220.40226746 154.44711304 C215.44103503 158.57556717 209.25880299 161.86228808 202.83952332 162.71664429 C197.35701687 165.06222797 196.34958982 168.98345336 194.15617371 174.30648804 C193.72215744 175.30248016 193.28814117 176.29847229 192.8409729 177.324646 C191.46207465 180.50405418 190.11949959 183.69738952 188.77726746 186.89242554 C187.84798039 189.05229385 186.91636639 191.21116258 185.98234558 193.36898804 C183.6993718 198.65717089 181.446018 203.95722803 179.21476746 209.26742554 C178.55476746 209.26742554 177.89476746 209.26742554 177.21476746 209.26742554 C176.84827087 208.60960083 176.48177429 207.95177612 176.10417175 207.27401733 C174.37179434 204.16676294 172.63735984 201.06066474 170.90226746 197.95492554 C170.27304382 196.82820435 169.64382019 195.70148315 168.99552917 194.5406189 C164.55967127 186.61736324 160.05136437 178.74098976 155.41667175 170.93222046 C152.21476746 165.4820027 152.21476746 165.4820027 152.21476746 163.26742554 C151.41484941 163.27019092 150.61493137 163.2729563 149.79077339 163.27580547 C130.30124268 163.34214123 110.81173458 163.39174303 91.32211494 163.42286205 C81.89696821 163.43831208 72.47189697 163.45936587 63.04679871 163.4937439 C54.82914073 163.52370342 46.61153744 163.54301409 38.39382637 163.54969102 C34.04509131 163.5535922 29.69651269 163.56272144 25.34782791 163.58461571 C21.24878438 163.60508454 17.14996068 163.61123848 13.0508709 163.60674858 C11.55215571 163.60756916 10.05343264 163.61347265 8.55476189 163.62504196 C-3.73808952 163.71522821 -14.1379624 162.4546682 -23.78523254 154.26742554 C-32.26243074 145.32749819 -33.26367446 136.08236249 -33.46101379 124.19711304 C-33.49341111 122.79010298 -33.52657835 121.38311047 -33.56045532 119.97613525 C-33.91556742 104.10710612 -33.97238965 88.23161753 -33.97053528 72.35922241 C-33.9704317 68.16178372 -33.98434776 63.96450682 -34.00130749 59.76710701 C-34.0124509 56.47266895 -34.01445416 53.17827074 -34.01392555 49.88381577 C-34.0150919 48.33464855 -34.01943631 46.78547984 -34.02725792 45.23633194 C-34.08914562 31.7790099 -33.71551266 18.4660916 -23.78523254 8.26742554 C-16.09250537 2.36917774 -9.64301474 -0.03691552 0 0 Z " fill="#FEFEFE" transform="translate(81.78523254394531,76.73257446289063)"/>
<path d="M0 0 C1.30898499 -0.00679667 1.30898499 -0.00679667 2.64441413 -0.01373065 C5.56220651 -0.02636892 8.4798121 -0.02475464 11.39762878 -0.02310181 C13.49226114 -0.02908741 15.5868913 -0.03589303 17.68151855 -0.04345703 C23.36754843 -0.06112096 29.0535181 -0.06581258 34.73957276 -0.0670886 C38.29323276 -0.06851054 41.84687747 -0.07278094 45.40053368 -0.07808304 C57.80159349 -0.09658461 70.20261031 -0.10475349 82.60368347 -0.10317993 C94.15758491 -0.1019785 105.71129954 -0.123081 117.26515371 -0.15466726 C127.18975827 -0.18083117 137.11430183 -0.19154718 147.03894061 -0.19026911 C152.96424755 -0.18975952 158.88938848 -0.19544165 164.81466103 -0.21662521 C170.38876153 -0.23600935 175.96253767 -0.23613063 181.5366497 -0.22159195 C183.57921447 -0.21950299 185.62179955 -0.22420989 187.66432953 -0.23631287 C190.45946 -0.251799 193.2534767 -0.24243496 196.04858398 -0.22705078 C196.85093863 -0.23733791 197.65329327 -0.24762503 198.47996169 -0.25822389 C207.28072108 -0.15166943 214.07672126 3.48907769 220.42570496 9.40805054 C228.00280333 17.28293881 229.51476125 24.51062237 229.5052948 35.25473022 C229.51201202 36.3514505 229.51872925 37.44817078 229.52565002 38.578125 C229.5446249 42.19856313 229.54855416 45.81881579 229.55070496 49.43930054 C229.55713376 51.96267777 229.56386219 54.48605426 229.57087708 57.00942993 C229.58284897 62.29857409 229.58664384 67.58764947 229.58537292 72.87680054 C229.58417308 78.9696424 229.60524899 85.06212915 229.63686025 91.15488124 C229.66628325 97.03779034 229.67334576 102.92056025 229.67215347 108.80353546 C229.67450733 111.29609882 229.68331861 113.78866505 229.69881821 116.28118134 C229.71850967 119.77526423 229.71262656 123.26844393 229.7006073 126.76254272 C229.71184631 127.78314789 229.72308533 128.80375305 229.73466492 129.85528564 C229.6521383 139.34148758 226.97620368 147.44813783 220.40226746 154.44711304 C215.44103503 158.57556717 209.25880299 161.86228808 202.83952332 162.71664429 C197.35701687 165.06222797 196.34958982 168.98345336 194.15617371 174.30648804 C193.72215744 175.30248016 193.28814117 176.29847229 192.8409729 177.324646 C191.46207465 180.50405418 190.11949959 183.69738952 188.77726746 186.89242554 C187.84798039 189.05229385 186.91636639 191.21116258 185.98234558 193.36898804 C183.6993718 198.65717089 181.446018 203.95722803 179.21476746 209.26742554 C178.55476746 209.26742554 177.89476746 209.26742554 177.21476746 209.26742554 C176.84827087 208.60960083 176.48177429 207.95177612 176.10417175 207.27401733 C174.37179434 204.16676294 172.63735984 201.06066474 170.90226746 197.95492554 C170.27304382 196.82820435 169.64382019 195.70148315 168.99552917 194.5406189 C164.55967127 186.61736324 160.05136437 178.74098976 155.41667175 170.93222046 C152.21476746 165.4820027 152.21476746 165.4820027 152.21476746 163.26742554 C151.41484941 163.27019092 150.61493137 163.2729563 149.79077339 163.27580547 C130.30124268 163.34214123 110.81173458 163.39174303 91.32211494 163.42286205 C81.89696821 163.43831208 72.47189697 163.45936587 63.04679871 163.4937439 C54.82914073 163.52370342 46.61153744 163.54301409 38.39382637 163.54969102 C34.04509131 163.5535922 29.69651269 163.56272144 25.34782791 163.58461571 C21.24878438 163.60508454 17.14996068 163.61123848 13.0508709 163.60674858 C11.55215571 163.60756916 10.05343264 163.61347265 8.55476189 163.62504196 C-3.73808952 163.71522821 -14.1379624 162.4546682 -23.78523254 154.26742554 C-32.26243074 145.32749819 -33.26367446 136.08236249 -33.46101379 124.19711304 C-33.49341111 122.79010298 -33.52657835 121.38311047 -33.56045532 119.97613525 C-33.91556742 104.10710612 -33.97238965 88.23161753 -33.97053528 72.35922241 C-33.9704317 68.16178372 -33.98434776 63.96450682 -34.00130749 59.76710701 C-34.0124509 56.47266895 -34.01445416 53.17827074 -34.01392555 49.88381577 C-34.0150919 48.33464855 -34.01943631 46.78547984 -34.02725792 45.23633194 C-34.08914562 31.7790099 -33.71551266 18.4660916 -23.78523254 8.26742554 C-16.09250537 2.36917774 -9.64301474 -0.03691552 0 0 Z M-22.78523254 15.26742554 C-26.36304198 20.20624606 -27.89989464 24.81329498 -27.93240356 30.85717773 C-27.93955887 31.77378174 -27.94671417 32.69038574 -27.9540863 33.63476562 C-27.95677521 34.63325531 -27.95946411 35.631745 -27.9622345 36.66049194 C-27.96880569 37.71790588 -27.97537689 38.77531982 -27.98214722 39.86477661 C-28.00186594 43.36618116 -28.01354066 46.86754281 -28.02351379 50.36898804 C-28.02758932 51.5664201 -28.03166485 52.76385216 -28.03586388 53.99757004 C-28.05672006 60.33735735 -28.0710229 66.67712306 -28.08039856 73.01693726 C-28.09145269 79.55367988 -28.12584291 86.09008114 -28.16557026 92.62670326 C-28.19176212 97.66260394 -28.20009279 102.69842365 -28.20368004 107.73438644 C-28.2085405 110.14322587 -28.22013895 112.55206182 -28.23871803 114.9608345 C-28.26315973 118.34015906 -28.26213462 121.71860539 -28.25520325 125.09799194 C-28.26801331 126.08433624 -28.28082336 127.07068054 -28.29402161 128.08691406 C-28.23128065 136.52177341 -26.29160163 143.79551467 -20.53523254 150.14242554 C-13.66481132 156.91081081 -6.63181099 157.77275104 2.61778259 157.7651062 C4.13774462 157.75095363 5.65770308 157.73641446 7.17765808 157.7215271 C8.79458081 157.72039757 10.41150559 157.72103454 12.02842712 157.72329712 C16.39989636 157.72444109 20.77092332 157.70098344 25.14229012 157.67300129 C29.71732952 157.64793456 34.29237994 157.64564149 38.86747742 157.64089966 C47.5229708 157.62848534 56.17826122 157.5956847 64.83366537 157.5555017 C74.69095024 157.51073585 84.54824499 157.48878486 94.40560627 157.46871996 C114.67543979 157.42695066 134.94509082 157.35662871 155.21476746 157.26742554 C155.5174353 158.03855179 155.82010315 158.80967804 156.13194275 159.60417175 C157.27053099 162.40457833 158.60327708 164.99637484 160.04289246 167.65414429 C160.87240417 169.18651733 160.87240417 169.18651733 161.71867371 170.74984741 C162.29488464 171.80752319 162.87109558 172.86519897 163.46476746 173.95492554 C164.02550964 174.99326538 164.58625183 176.03160522 165.16398621 177.10140991 C166.82876393 180.16759983 168.51552431 183.22021552 170.21476746 186.26742554 C170.76068542 187.25694214 171.30660339 188.24645874 171.86906433 189.26596069 C172.39049011 190.1803894 172.91191589 191.09481812 173.44914246 192.03695679 C173.91030457 192.85398071 174.37146667 193.67100464 174.84660339 194.51278687 C175.29809753 195.09181763 175.74959167 195.67084839 176.21476746 196.26742554 C177.20476746 196.26742554 178.19476746 196.26742554 179.21476746 196.26742554 C179.69421814 195.18735229 180.17366882 194.10727905 180.66764832 192.99447632 C182.4432212 188.9949191 184.21940408 184.99563302 185.99577332 180.99642944 C186.76514617 179.26408178 187.53435261 177.53166021 188.3033905 175.79916382 C189.40752835 173.31182813 190.51226045 170.82475713 191.61711121 168.33773804 C191.96193039 167.56060455 192.30674957 166.78347107 192.66201782 165.98278809 C195.10089575 160.49516895 195.10089575 160.49516895 196.21476746 158.26742554 C198.43742371 157.81039429 198.43742371 157.81039429 201.27726746 157.45492554 C209.4002051 156.08707334 214.51515993 152.51884155 219.89054871 146.40414429 C224.14383063 139.54117905 224.65136582 133.25941146 224.60295105 125.38851929 C224.60820801 124.32730865 224.61346497 123.26609802 224.61888123 122.17272949 C224.63202791 118.68330944 224.62336174 115.19434981 224.61320496 111.70492554 C224.61522721 109.2692964 224.61813992 106.83366785 224.62190247 104.39804077 C224.62631861 99.30073261 224.61991741 94.20358248 224.60588074 89.10629272 C224.58878953 82.58294596 224.59863448 76.05996954 224.61659813 69.53663635 C224.62745499 64.50938137 224.62398084 59.48221372 224.61621475 54.45495605 C224.61421802 52.05006872 224.61665345 49.64517338 224.62365341 47.24029541 C224.63129897 43.87542814 224.6196195 40.51115498 224.60295105 37.14633179 C224.61206009 35.66545578 224.61206009 35.66545578 224.62135315 34.15466309 C224.54409738 25.70720414 222.70546376 19.13694334 216.89054871 12.80258179 C214.20655071 10.34381439 211.48856147 8.87456078 208.21476746 7.26742554 C207.49459096 6.90799771 206.77441446 6.54856989 206.03241444 6.17825031 C202.24901708 4.95523974 198.62786965 4.98808113 194.69491577 5.00672913 C193.83874218 5.00290358 192.98256858 4.99907803 192.10045034 4.99513656 C189.23248767 4.98482056 186.36472573 4.98879608 183.49674988 4.99276733 C181.44005142 4.98842004 179.38335458 4.98323683 177.32666016 4.97727966 C171.73980218 4.96387904 166.15301181 4.96331228 160.56614089 4.96584296 C155.90167741 4.96691214 151.23722763 4.96203056 146.57276708 4.95723754 C135.56694885 4.94613827 124.56116475 4.94570705 113.55534363 4.95175171 C102.20426209 4.95779021 90.85330455 4.94548454 79.50224417 4.92418164 C69.75516952 4.90656208 60.00813432 4.90056492 50.26104432 4.90381938 C44.44030374 4.90563211 38.61965156 4.90299716 32.7989254 4.88910484 C27.3233733 4.87652576 21.84801429 4.87847151 16.37246513 4.89151573 C14.3649616 4.89388102 12.35744447 4.89114853 10.34995651 4.88289261 C7.60493764 4.87241935 4.86056595 4.88053058 2.11557007 4.89320374 C1.32518426 4.88582945 0.53479844 4.87845517 -0.27953845 4.87085742 C-9.59487458 4.96104436 -16.47169745 8.44992756 -22.78523254 15.26742554 Z " fill="#0E0E0E" transform="translate(81.78523254394531,76.73257446289063)"/>
<path d="M0 0 C6.50113738 3.80255205 11.43933628 7.82837284 14.3125 14.9375 C15.20613963 21.87729601 15.36763269 29.13315329 11.640625 35.26171875 C7.08163338 41.01409347 1.3959426 45.16467933 -6 46.2890625 C-12.80646886 46.69319659 -18.15611541 44.90483792 -23.6875 40.9375 C-28.91774608 35.5775784 -31.94541419 29.80509452 -32.1875 22.25 C-32.04760345 15.55965323 -30.0864641 10.96106346 -25.6875 5.9375 C-17.61125213 -0.70477422 -10.29909024 -2.96753448 0 0 Z " fill="#040404" transform="translate(251.6875,139.0625)"/>
<path d="M0 0 C4.30757797 2.42343927 6.86896719 4.78270886 9.625 8.875 C10.223125 9.74125 10.82125 10.6075 11.4375 11.5 C13.65876247 17.81306175 13.84902959 24.97671255 11.125 31.1875 C7.53559783 37.29712072 1.29928123 42.55943304 -5.375 44.875 C-12.22313122 45.93467214 -18.44649081 44.39688665 -24.375 40.875 C-29.18963379 36.54005297 -33.06627763 32.02325024 -33.7109375 25.44921875 C-33.84371897 12.23746276 -33.84371897 12.23746276 -29.375 6.875 C-20.89839866 -1.70778006 -11.59077125 -5.38823596 0 0 Z " fill="#040404" transform="translate(127.375,140.125)"/>
<path d="M0 0 C5.5956565 3.1492248 9.20143106 6.96536212 12.0625 12.6875 C13.6616475 21.00306702 13.41056387 27.77936168 8.6875 34.9375 C8.089375 35.845 7.49125 36.7525 6.875 37.6875 C1.53266417 43.18247399 -2.68209106 44.37193568 -10.25 44.5 C-15.6993277 44.43295427 -20.28127619 44.04959176 -24.69921875 40.640625 C-30.50510354 34.51141007 -33.59747896 28.96627947 -33.453125 20.59375 C-33.07307513 13.41503017 -31.32548039 8.96752888 -26.2890625 3.703125 C-18.61387111 -3.15297482 -9.39638933 -4.26723245 0 0 Z " fill="#030303" transform="translate(190.3125,140.0625)"/>
</svg>
